<svg width="100" height="100" viewBox="0 0 100 100" xmlns="http://www.w3.org/2000/svg"><path fill="#A9A09F" d="M17.46 78.9l31.9 18.63L81.25 78.9V20.95l-31.89-3.29-31.9 3.29z"/><path fill="#CF4A27" d="M69.95 81.65c-.97-2.23-2.81-5.03-3.97-7.27-.87-1.58-.39-3.35-2.32-3.16 0 0-2.81.84-3.88 1.03-1.07.28-4.65 2.97-5.91 3.44-1.55.56-3.29.19-4.93.19-.48 0-4.84-1.86-4.93-1.96-.97-.74-7.26-2.32-7.45-1.77-.2.55-6.1 13.59-5.61 14.16.29.28 15.01 8.57 15.78 8.75.39.09 3.22 2.18 3.22 2.18.48.56 12.47-6 12.47-6.93 0 0 7.94-4.19 8.52-4.38 2.1-.74-.31-2.88-.99-4.28z"/><path fill="#F1662A" d="M56.26 73.9c-.57-.47-1.06.46-.29 1.03 3.19 2.37 5.86 5.87 6.17 9.84-1.69-.58-3.44-.73-5.11-1.37-.38-.18-.86.1-.77.56.32 1.58.03 3.02-.07 4.56-1.55-.77-3.21-1.52-4.29-2.88-.29-.36-.87 0-.87.38-.17 1.7-.06 3.25-.9 4.72l-.15.15-.17-.17c-.82-1.46-.71-3-.88-4.68 0-.38-.59-.74-.87-.38-1.08 1.36-2.74 2.1-4.29 2.88-.1-1.54-.39-2.97-.07-4.56.09-.46-.39-.74-.77-.56-1.67.64-3.42.8-5.11 1.37.31-3.97 2.98-7.48 6.17-9.84.77-.56.29-1.49-.29-1.03-3.77 2.7-6.68 6.8-6.77 11.46 0 .46.48.65.77.46 1.55-.71 3.33-.82 5-1.35-.15 1.61.13 3.14.13 4.79 0 .38.48.65.77.46 1.52-.77 3.17-1.48 4.47-2.6.14 1.59.22 2.98 1.09 4.4.09.19.22.4.43.62h.01l.1.06.07.04c.2.08.46.05.61-.1.24-.25.39-.5.47-.72.82-1.39.91-2.75 1.05-4.31 1.3 1.12 2.96 1.82 4.48 2.6.29.19.77-.09.77-.46 0-1.65.28-3.17.13-4.79 1.68.53 3.45.64 5 1.35.29.19.77 0 .77-.46-.11-4.67-3.02-8.77-6.79-11.47z"/><path fill="#A23922" d="M50.19 81.19s5.04-.38 6-1.49c4.65-5.4 9.1-6.7 9.1-6.7l-.68-1.39-14.53 2.8-13.37-2.7v1.49s3.49 1.21 8.24 6.61c.98 1.1 5.14 1.38 5.24 1.38" opacity=".5"/><path fill="#F15A29" d="M71.49 52.23c-.09 5.03-.77 10.24-3.39 14.62-1.16 1.96-1.64 3.44-3.49 4.84-1.55 1.12-5.04.46-7.56 2.51 0 0-3.49 2.97-6.49 2.8-2.91-.19-5.81-2.61-5.81-2.61-1.45-1.39-4.93-1.68-7.07-2.42-2.52-.93-6.49-8.66-6.77-10.05l-.68-2.61c-.87-2.05-1.07-4.28-2.13-6.33-.77-1.3-1.36-2.42-1.64-3.63-.59-2.8-1.25-5.68-1.75-8.47-.87-4.19-2.61-10.98.2-14.52 0 0 3.16-.72 8.81 5.21 2.71 2.42 5.42 6.98 8.81 8.28 0 0 1.16-1.21 1.84-2.32.77.65 2.23 1.49 3.39 1.3.77 0 1.36-.74 1.93-.74.48 0 1.25.46 1.45.46 2.04.84 1.93-.93 3.09-.84 1.16 0 1.16 2.23 3.68.84l1.25-.09c3.2-3.35 9.58-11.92 15.01-10.71 4.84 1.21-.87 19.93-2.52 24.49"/><path fill="#151841" d="M76.43 29.89c-.97-4-5.61-2.51-8.13-.84-2.23 1.49-4.16 3.44-5.91 5.4-.77.84-1.55 1.77-2.42 2.7L59 38.27c.09-.09-.68.09-.97.09-.68.09-1.16.65-1.84.38-.39-.19-.68-.56-.97-.84a1.68 1.68 0 0 0-2.04 0c-.48.46-.77.84-1.55.65-.59-.19-1.16-.56-1.75-.65-.59-.09-1.07.28-1.45.46-1.16.74-2.71-.28-3.58-.93-.29-.19-.68-.19-.87.09-.48.74-.87 1.3-1.45 1.96-2.61-1.3-4.45-3.73-6.2-5.86-1.64-1.86-3.49-3.54-5.33-5.12-.87-.74-1.84-1.49-3-1.96-1.07-.46-1.84-.38-2.91-.38-.87 0-1.25 1.3-1.55 1.96-.48 1.21-.68 2.7-.68 4 0 2.8.59 5.58 1.16 8.38.39 1.68.59 3.44.97 5.12.39 1.86.59 3.82 1.36 5.58.77 1.77 1.75 3.35 2.32 5.21.39 1.3.87 2.61 1.16 3.91.39 1.39.77 2.7 1.36 3.91 1.25 2.51 2.71 5.12 4.65 7.17 1.84 1.96 4.93 1.58 7.26 2.7 2.23 1.58 4.65 3.16 7.36 3.54 2.81.28 5.42-1.68 7.75-3.44 1.84-.84 3.88-.84 5.81-1.49 1.93-.65 3-2.8 3.88-4.38 1.36-2.42 2.42-4.66 3.09-7.35.58-2.23.81-4.52.92-6.82.02-.4.24-1.38.24-1.38 1.36-3.54 2.32-7.17 3.2-10.89.89-4 1.95-8.29 1.08-12zm-.96 4.93c-.2 2.32-.68 4.57-1.16 6.8-.77 3.44-1.75 6.8-2.91 10.15-.2.09-.43 1.55-.46 2.09-.12 2.06-.34 4.13-.8 6.19-.59 2.61-1.64 4.84-2.91 7.17-.97 1.77-1.93 3.91-4.16 4.47-.97.28-1.93.38-2.81.56 0-.38-.39-.65-.77-.38-.87.56-2.81 1.96-2.81 2.05-1.84 1.3-3.88 2.51-6.1 2.42-1.64-.09-3.29-1.03-4.55-1.86-.39-.19-1.55-1.12-1.75-1.21-.77-.56-1.45-1.03-2.23-1.58-.39-.28-.77.09-.77.56-.77-.19-1.45-.28-2.13-.46-2.04-.46-3.09-1.96-4.26-3.63-1.84-2.7-3.09-5.5-3.97-8.66-.29-1.03-.68-2.05-.97-3.16-.39-1.58-.87-2.89-1.75-4.28-.97-1.58-1.25-3.26-1.64-5.03-.39-1.68-.77-3.44-1.07-5.21-.48-2.61-1.07-5.12-1.36-7.82-.2-2.32-.2-4.93 1.16-6.98.59 0 1.16-.09 1.84.09.97.28 1.84.93 2.61 1.58 1.36 1.03 2.52 2.23 3.77 3.35 2.91 2.51 5.91 8.01 9.2 8.57.77-.65 1.36-1.39 1.93-2.23.87.56 1.75 1.03 2.81 1.12.59.09 1.07-.09 1.55-.38.87-.46 1.07-.38 1.93.09.77.38 1.64.46 2.32-.09.29-.19.59-.65.97-.65.29 0 .77.65.97.74.68.56 1.45.56 2.23.38.48-.09.68-.28 1.16-.38.29 0 .77 0 .97-.19 1.64-1.77 3.2-3.63 4.84-5.31 1.84-1.96 3.97-3.91 6.58-4.93 1.55-.65 3.58-.84 4.26.93.62 1.57.42 3.43.24 5.11z"/><path fill="#EFA75B" d="M64.71 53.07c-.29-.93-.97-1.58-1.93-1.77-.77-.19-1.55 0-2.23-.09.09-.65.59-2.7-.87-2.51-.77 0-1.55 2.23-2.04 2.8-.77 1.12-1.25.84-1.36-.46-.2-1.3.48-3.07-.59-3.35-.77-.09-1.36 1.39-1.64 2.32-.09.46-.59.84-.39-2.42 0-.84 0-3.07-.48-3.16h-.2c-1.36.09-2.32 5.31-2.71 6.8-.29-1.49-1.84-7.82-3-6.43-.29.84-.09 1.21-.2 2.05 0 .46-.09 3.63-.48 3.07-.2-.93-1.25-2.8-1.84-2.51-1.07.93-.2 2.23-.48 3.54-.2 1.3-.68 1.58-1.36.38-.39-.56-1.07-2.8-1.84-2.89-1.36-.19-.97 1.86-.97 2.51-.68 0-1.45-.19-2.23-.09-.97.19-1.64.74-2.04 1.68-.09.19 0 7.17 6.4 7.27 1.07 0 1.84-.09 2.71-.46.59-.19 1.07-.65 1.55-.28l6.58.46c.48-.38.97-.65 1.45-.46.87.38 2.13 1.03 3.2 1.03 3.29 0 6.2-1.3 7.17-4.28.31-.14-.08-2.56-.18-2.75z"/><path fill="#fff" d="M37.98 54.1s4.07-.38 5.13.19c2.13 1.03 2.42 3.35 2.42 3.07 0 0-1.25.46-1.64.46-.68.09-1.55.19-2.04.19-3.28-.38-3.87-3.91-3.87-3.91zm25.38.55s-3.97-.56-5.13-.09c-2.23.93-2.61 3.26-2.61 2.97 0 0 1.25.46 1.55.56 1.07.28 1.55.28 2.04.28 3.38-.18 4.15-3.72 4.15-3.72zm-7.56 2.8c.29.09 1.25.46 1.55.56.77.19 1.25.28 1.75.28h.2c2.91-.09 3.88-3.07 3.97-3.54-.39-.09-2.13-.28-3.39-.28-.77 0-1.25.09-1.55.19-1.85.74-2.43 2.42-2.53 2.79z"/><path fill="#F47741" d="M47.18 64.06c-.29-1.49.09-2.97.39-4.47 0 0 .97-3.16 2.52-3.44 3.97-.74 4.36 8.01 4.36 8.01-4.66 2.04-7.27-.1-7.27-.1z"/><path fill="#EFA75B" d="M61.14 65.17c-.29-.65-1.45-1.21-2.32-1.3-1.84-.19-8.13 1.21-8.13 1.21l-.01.07c-.83-.22-6.43-1.72-8.13-1.56-.87.09-2.13.56-2.42 1.21-.48.93.09 2.15.59 3.16.59 1.12 1.93 2.8 3.29 3.63.59.38 1.16.56 1.75.56 4.84.09 5.14-2.78 5.14-2.69l.08-.5.01.01c.2 0-.39 2.97 4.36 2.97.59 0 1.16.19 1.75-.09 1.36-.84 2.81-2.42 3.39-3.54.45-.99 1.13-2.11.65-3.14z"/><path fill="#151841" d="M46.9 72.35c-.2 0-.39-.19-.39-.38s.09-.38.39-.38c3.49-.28 3.77-2.32 3.88-2.42 0-.19.2-.38.39-.28.2 0 .39.19.39.38 0 .09 0 2.05 3.68 2.15.2 0 .39.19.39.38s-.2.38-.39.38c-1.84 0-3.09-.56-3.88-1.49-.09-.09-.2-.28-.2-.38-.69.82-1.85 1.85-4.26 2.04z"/><path fill="#CF4A27" d="M47.09 64.24c.2-.56 3.88.09 3.88.09s3.2-.74 3.68.09c.09.19-.39.84-.39.84s-1.36-.09-1.64.19c-.39.38-.59 2.15-.48 2.15.09 0-.68.93-1.07.93-.29 0-1.16-.65-1.07-.74.09-.09-.09-1.96-.59-2.32-.29-.28-1.36.09-1.75-.09-.19-.3-.57-1.14-.57-1.14zm7.45.28c.09.19-.39.84-.39.84s-1.36-.09-1.64.19c-.39.38-.59 2.15-.48 2.15.09 0-.68.93-1.07.93-.29 0-1.16-.65-1.07-.74.09-.09-.09-1.96-.59-2.32-.29-.28-1.36.09-1.75-.09-.29-.09-.59-.93-.59-.93"/><path fill="#151841" d="M50.97 69c-.48 0-1.55-1.21-1.45-1.3 0-.38-.2-1.68-.39-1.96h-.68c-.39 0-.77.09-.97-.09-.39-.19-.68-.84-.77-1.12-.09-.19 0-.38.2-.46.2-.09.39 0 .48.19.09.38.39.74.48.74h.59c.48 0 .87-.09 1.16.19.59.46.68 2.05.68 2.15v.38c.2.19.48.38.68.46.2-.09.48-.46.68-.65 0-.19 0-.46.09-.93.2-1.03.48-1.3.59-1.39.29-.28 1.16-.28 1.75-.28.09-.19.2-.28.2-.38 0-.19 0-.28.2-.38.2-.09.39-.09.48.09.09.09.29.46-.48 1.3-.09.09-.2.19-.29.09-.59 0-1.25 0-1.36.09-.2.19-.39 1.3-.39 1.68v.19c-.14.27-.91 1.29-1.48 1.39zm-7.74-15.1c-.48-.19-1.25-.28-2.61-.28s-2.62.09-2.71.09h-.39v.38s.77 3.82 4.26 4.19c.09 0 1.64 0 2.23-.1.29-.09 1.84-.46 1.84-.46s-.01-2.89-2.62-3.82zm.57 3.45c-.48.19-1.45.19-1.84.19-1.27-.09-2.23-.74-2.91-1.86-.3-.46-.5-.93-.59-1.3.49 0 1.27-.1 2.23-.19.24 0 .45.01.64.02-.09.74-.26 2.65.52 2.51.72-.13.9-1.57.95-2.29l.12.05c1.36.65 1.93 1.95 2.13 2.51-.48.17-1.05.36-1.25.36zm19.75-3.08c-.09 0-2.02-.28-3.58-.28-.87 0-1.36.1-1.75.19-1.64.65-2.43 2.06-2.71 2.8l-.17.85 1.92.64c.77.19 1.36.28 1.84.28l.3-.01c3.49-.19 4.45-4 4.45-4l.09-.38-.39-.09zm-1.36 1.96C61.61 57.73 59.09 58 59 58c-.39 0-.97-.09-1.64-.28-.2-.09-.68-.28-1.16-.46.2-.56.87-1.76 2.22-2.33.02.73.17 2.1.87 2.24.68.14.66-1.65.61-2.43 1.06 0 2.3.1 2.98.19-.1.38-.49.74-.69 1.3z"/><path fill="#EFA75B" d="M33.24 59.77c.59 1.49 1.64 2.61 3.09 3.35.97.56 1.84-.93.87-1.49-.97-.56-1.84-1.3-2.23-2.32-.37-1.03-2.12-.56-1.73.46zm31.67 3.36c1.07-.74 2.23-1.39 2.91-2.61.59-.93-.97-1.86-1.55-.84-.48.84-1.45 1.39-2.32 1.96-.39.28-.59.74-.29 1.21.18.38.86.55 1.25.28z"/><path fill="#F1662A" d="M36.82 71.6c-1.75 5.5-5.33 8.66-6 14.34"/><path fill="#151841" d="M36.24 71.51c-1.64 5.03-5.33 9.12-6 14.43-.09.65.64 2 1.07 0 .68-5.21 4.45-9.31 6-14.16.19-.65-.87-.92-1.07-.27zm28.08.55c2.04 4.57 5.13 8.57 6.4 13.4.2.65 1.4.35 1.31-.29-1.25-4.93-4.7-9.01-6.83-13.67-.2-.56-1.17-.09-.88.56z"/><path fill="#fff" d="M29.76 52.42c1.64-1.49 2.61-4.74 3-7.35-.09.38 2.81.46 4.45-1.3 1.16-1.21.48-2.15-.2-3.63-1.84-3.82-4.93-6.8-7.94-9.59-.77-.74-1.55-2.61-2.91-2.15-1.07.38-.97 3.44-.77 4.38 1.17 8.01 4.37 19.64 4.37 19.64zm40.19-.84c-1.55-1.49-3.2-4.57-3.49-7.08 0 .38-2.81.38-4.36-1.39-1.07-1.21-.39-2.05.39-3.35 2.04-3.44 5.23-6.15 8.33-8.75.87-.65 1.75-1.58 3-1.03 1.07.46.77 2.51.59 3.35-1.57 8.94-4.46 18.25-4.46 18.25z"/><path fill="#F1662A" d="M70.13 39.48c-2.13.55-4.45 1.76-5.49 3.75-.46-2.36 1.77-5.01 3.65-6.27.59-.38 0-1.3-.59-.93-2.32 1.68-4.75 4.84-4.07 7.73.09.32.39.41.66.35l-.08.3c-.09.65.97.93 1.07.28.48-2.32 2.91-3.63 5.13-4.19.7-.18.4-1.21-.28-1.02zM31.3 36.96c-.59-.38-1.07.46-.59.93 1.54 1.08 3.42 3.28 3.65 5.33-1-1.99-3.28-3.2-5.49-3.75-.68-.19-.97.84-.29 1.03 2.23.56 4.65 1.86 5.13 4.19.11.4.56.45.84.28.28.17.68.12.8-.28.79-2.89-1.72-6.14-4.05-7.73z"/><path fill="#151841" d="M36.63 38.55c-1.64-2.8-3.97-5.12-6.29-7.35l-2.52-2.8c-.48-.46-1.45-.65-2.04-.09-1.25 1.12-.97 3.54-.77 5.03.39 2.89.97 5.68 1.64 8.47.77 3.63 1.64 7.17 2.61 10.71 0 .19.2.28.29.28.09.09.29 0 .48-.09 1.84-1.77 2.61-4.47 3-6.98 1.16.19 3.09-.65 3.58-.93 2.83-1.6 1.28-4.2.02-6.25zm-.67 5.77c-.48.28-1.07.46-1.64.56-.2 0-1.07 0-1.07.09-.09-.38-.77-.46-.87 0-.39 2.23-.97 4.74-2.42 6.51-1.64-6.05-3.09-12.29-4.07-18.44-.2-1.03-.29-5.58 1.64-3.63l1.84 2.15c.87.84 1.75 1.77 2.61 2.61 1.84 1.86 3.39 4 4.55 6.33.29.56.59 1.03.68 1.58.48.94-.48 1.77-1.25 2.24zm36.79-14.99c-.87.09-1.64.74-2.23 1.3-1.16 1.03-2.32 1.96-3.49 2.97-2.13 1.96-3.88 4.09-5.33 6.51-1.16 1.96-.2 3.54 1.84 4.47.39.19 1.75.65 2.61.56.48 2.51 1.75 4.93 3.49 6.7.2.09.29.09.48.09.09 0 .2-.09.29-.28 1.07-3.35 1.93-6.8 2.81-10.24.68-2.8 1.36-5.77 1.75-8.66.11-1.57 0-3.51-2.22-3.42zm1.26 3.26c-.39 4.19-1.64 8.47-2.71 12.57-.48 1.86-.97 3.73-1.55 5.5-1.55-1.77-2.52-4-2.91-6.33-.09-.46-.77-.38-.87 0 .09-.28.2-.19-.2-.09-.39 0-.77-.09-1.16-.19-1.07-.28-2.61-1.03-2.71-2.23-.09-.84.87-1.96 1.36-2.7.68-1.03 1.45-1.96 2.23-2.89 1.45-1.58 3-2.89 4.65-4.28.68-.56 1.36-1.21 2.23-1.68 1.74-.94 1.74 1.39 1.64 2.32zM50 100L16 80.14V19.5L50 16l34 3.5v60.64L50 100zM19.04 78.44L50 96.53l30.96-18.09V22.19L50 19l-30.96 3.19v56.25z"/></svg>