<svg width="100" height="100" viewBox="0 0 100 100" xmlns="http://www.w3.org/2000/svg"><path fill="#A9A09F" d="M18.11 78.69L50 97.32l31.89-18.63V20.74L50 17.45l-31.89 3.29z"/><path fill="#D4D0CF" d="M50 98.22V17.45l-31.89 3.29-1.08 58.57z"/><path fill="#fff" d="M50.22 16.71v-.03l-.11.02-.11-.02v.03l-32.44 3.97 18.25 16.99 14.29.5h.03l14.28-.5 18.25-16.99z" opacity=".69"/><path fill="#151841" d="M50 100L16 80.14V19.5L50 16l34 3.5v60.64L50 100zM19.04 78.44L50 96.53l30.96-18.09V22.19L50 19l-30.96 3.19v56.25zm55.65-2.14c-15.58-1.11-30.98-1.88-46.84.26-2.38.34-3.21 1.11-1.63 2.26 2.84 2.43 45.41 2.54 47.8-.1 1.74-1.8 1.51-.51.67-2.42z"/><path fill="none" d="M67.22 16.68h.3"/><path fill="none" stroke="#426074" stroke-miterlimit="10" d="M37.760000000000005 41.24"/><path fill="#151841" d="M22.24 74.87c18.56-3.49 37.82-3 56.47 0l3.19.59c.73.09 1.1-.94.37-1.11-.11-.02-3.03-.57-3.14-.58-18.84-3.01-38.3-3.59-57.14-.01-.12.02-3.12.69-3.24.72-.83.17-.46 1.28.28 1.11-.02-.01 3.09-.7 3.21-.72z"/><path fill="#fff" d="M46.96 55.59l-14.3-14.94 4.22-6.83h25.21l4.13 6.83-13.94 14.94h-5.32z"/><path fill="#151841" d="M66.72 40.53l-4.4-7.34H50.06l-.06-.05-.05.05H36.56l-4.49 7.34L46.74 55.9h1.11l.07.15.33-.15h4.26l14.21-15.37zm-16.62-6.4l7.48 6.06H41.49l8.16-6.06h.45zm-9.49 5.84l-2.95-5.84h10.82l-7.87 5.84zm16.96.9l-6.92 14.09h-2.47l-7.12-14.09h16.51zm4.53-6.33l3.36 5.65H59l3.1-5.65zm-.59-.41l-3.16 5.77-7.12-5.77h10.28zm-24.5.32l2.9 5.74h-6.4l3.5-5.74zm10.18 20.5L33.76 40.87h6.49l7.12 14.09h-.18zm4.27 0l6.92-14.09h6.84L52.05 54.95h-.59z"/><path fill="#F15A29" d="M74.8 71.69c-1.01-3.67-1.94-6.57-5.24-9.48-.37-.34-4.31-4.78-6.97-5.81-1.01-1.79-2.66-4.01-2.57-5.89.09-2.22-3.12-3.76-3.39-.94-.09 1.2-.1 1.07-.46 2.26-.09 0-.89 2.05-2.47 2.01 0-.34-.84-2.49-2.02-3.5-.55-1.02-2.02-1.54-2.84-.6-.55.68-1.01.6-1.19 1.37-.37.6-1.12 3.96-3.39 2.05-.97-.81-.71-2.32-1.1-3.33.28-2.22-2.69-2.42-3.15-.29-.55 2.56-1.08 5.51-3.28 7.3l-2.64 1.95c-1.19.85-2.38 2.31-3.2 3.5-3.94 4.95-5.41 9.53-5.23 14.94.09.68 4.58 2.56 3.39.68.38-2.32.09-5.12 1.38-7.68 1.28-2.56 2.75-5.55 4.95-7.51 5.13-4.7 11.55-5.38 13.57-5.38 2.11 0 4.03.34 6.05.6 5.96 1.05 13.41 7.03 15.22 12.98 1.09 3.04.5 5.49.69 7.28.18 2.05 4.26.32 4.45-1.47-.09-2.27.08-2.65-.56-5.04z"/><path fill="#CF4A27" d="M50.13 56.58c-12.01 0-21.73 9.05-21.73 20.23 0 .68 0 1.37.09 2.05 0 .34 3.67.08 3.58-.43-.64-2.3.46-4.95 1.19-7.17.64-2.13 1.65-3.59 3.12-5.29 4.8-6.32 14.71-6.29 16.94-5.72 3.76.77 7.21 2.55 9.87 4.94 1.74 1.54 2.96 3.58 3.78 5.63 1.01 2.56 1.38 4.43 1.47 7.07 0 .34.52.55.8.64.45.19 2.5.73 2.5.39.09-.85.13-1.24.13-2.09-.02-11.2-9.73-20.25-21.74-20.25z"/><path fill="#151841" d="M75.52 76.9c0-7.62-3.66-14.73-10.32-19.2l-.13-.09-.13-.08-.31-.2-.08-.06h-.01c-1.39-1.01-2.49-2.65-3.23-4.09-.46-.85-.73-1.88-.92-2.82-.18-.85-.37-1.96-1.19-2.48-1.28-.77-2.66-.51-2.93.94-.27 1.69.08 4.3-2.41 4.35-.12-.27-.19-.56-.25-.85-.18-.43-.46-.85-.73-1.28-.55-.85-1.56-1.71-2.66-1.88-1.28-.17-2.2.26-2.93 1.2-.35.41-1.12 1.24-1.51 2.96-2.04-.27-1.89-2.63-2.07-4.16-.18-1.28-1.67-2.36-2.95-1.59-1.65 1.02-1.17 3.89-1.91 5.43-.73 1.71-1.51 2.9-3.65 4.52-.14.09-.23.21-.28.33-6.27 4.41-10 11.42-10 18.96 0 .09.03.17.07.23 0 .58.3 1.37 1.42 1.88.52.24 1.67.55 2.89.55 1.06 0 2.15-.26 2.92-.98.21-.06.37-.23.3-.57 0-.08.09-1.45.09-1.71.18-4.27 2.02-8.19 5.32-11.18s7.61-4.61 12.19-4.61c9.62 0 17.51 7.34 17.51 16.31 0 0 .04.92.14 1.02.18.42.56.86 1.27 1.18.52.24 1.67.55 2.89.55 1.15 0 2.34-.27 3.11-1.14.16-.07.54-1.33.48-1.44zm-6.11 1.21c-.42-.19-.65-.42-.77-.62v-.67c0-9.48-8.25-17.16-18.43-17.16-4.86 0-9.44 1.71-12.93 4.87-3.48 3.07-5.41 7.26-5.59 11.78-.07.14-.09 1.08-.09 1.54-1.22 1.14-3.95.67-4.83.27-1.07-.49-.89-1.17-.87-1.25l-.02-.01.03-.13c0-7.68 3.94-14.68 10.54-18.87.06-.03 1.75-1.73 2.41-2.65 1.19-1.62 1.44-3.59 1.81-5.46.18-.77.4-1.18 1.22-1.21.73-.03.8.78.8.95.09.68.09 1.37.18 2.13.37 1.54 1.38 2.65 3.21 2.65.24-.03.39-.14.47-.27l.07-.07.73-2.13c.64-.94 1.28-1.79 2.57-1.88 1.38 0 2.11 1.37 2.66 2.3l.64 1.71c.06.07.14.11.22.14.08.07.19.12.33.12 1.74 0 2.66-.94 3.12-2.39.18-.68.27-1.37.27-2.13 0-.34 0-.77.18-1.11.37-.77 1.65.6 1.74.85.37.85.46 1.88.73 2.73.27.94.73 1.71 1.28 2.56.69 1.14 1.63 2.34 2.78 3.2l.01.01.01.01c.22.16.45.32.68.45l.09.04c6.3 4.24 9.9 11.1 9.9 18.39 0 .11-.04.6-.21.93v.01l-.02-.02c-1.11 1.31-4.01.8-4.92.39z"/></svg>